<?xml version="1.0" encoding="UTF-8" standalone="no"?>
<!DOCTYPE svg PUBLIC "-//W3C//DTD SVG 1.1//EN"
 "http://www.w3.org/Graphics/SVG/1.1/DTD/svg11.dtd">
<!-- Generated by graphviz version 2.38.0 (20140413.2041)
 -->
<!-- Title: controllers_diagram Pages: 1 -->
<svg width="728pt" height="780pt"
 viewBox="0.00 0.00 728.15 780.05" xmlns="http://www.w3.org/2000/svg" xmlns:xlink="http://www.w3.org/1999/xlink">
<g id="graph0" class="graph" transform="scale(1 1) rotate(0) translate(234.15 362.506)">
<title>controllers_diagram</title>
<polygon fill="none" stroke="none" points="-234.15,417.543 -234.15,-362.506 494,-362.506 494,417.543 -234.15,417.543"/>
<!-- _diagram_info -->
<g id="node1" class="node"><title>_diagram_info</title>
<text text-anchor="start" x="284" y="212.4" font-family="Times,serif" font-size="13.00">Controllers diagram</text>
<text text-anchor="start" x="284" y="226.4" font-family="Times,serif" font-size="13.00">Date: Apr 22 2018 &#45; 02:43</text>
<text text-anchor="start" x="284" y="240.4" font-family="Times,serif" font-size="13.00">Migration version: 20180420083810</text>
<text text-anchor="start" x="284" y="254.4" font-family="Times,serif" font-size="13.00">Generated by RailRoady 1.5.3</text>
<text text-anchor="start" x="284" y="268.4" font-family="Times,serif" font-size="13.00">http://railroady.prestonlee.com</text>
</g>
<!-- InstructorsController -->
<g id="node2" class="node"><title>InstructorsController</title>
<path fill="none" stroke="black" d="M-218.15,155.655C-218.15,155.655 -112.15,155.655 -112.15,155.655 -106.15,155.655 -100.15,149.655 -100.15,143.655 -100.15,143.655 -100.15,-75.3454 -100.15,-75.3454 -100.15,-81.3454 -106.15,-87.3454 -112.15,-87.3454 -112.15,-87.3454 -218.15,-87.3454 -218.15,-87.3454 -224.15,-87.3454 -230.15,-81.3454 -230.15,-75.3454 -230.15,-75.3454 -230.15,143.655 -230.15,143.655 -230.15,149.655 -224.15,155.655 -218.15,155.655"/>
<text text-anchor="middle" x="-165.15" y="-72.1454" font-family="Times,serif" font-size="14.00">InstructorsController</text>
<polyline fill="none" stroke="black" points="-230.15,-64.3454 -100.15,-64.3454 "/>
<text text-anchor="start" x="-222.15" y="-49.1454" font-family="Times,serif" font-size="14.00">create</text>
<text text-anchor="start" x="-222.15" y="-34.1454" font-family="Times,serif" font-size="14.00">destroy</text>
<text text-anchor="start" x="-222.15" y="-19.1454" font-family="Times,serif" font-size="14.00">edit</text>
<text text-anchor="start" x="-222.15" y="-4.14543" font-family="Times,serif" font-size="14.00">index</text>
<text text-anchor="start" x="-222.15" y="10.8546" font-family="Times,serif" font-size="14.00">new</text>
<text text-anchor="start" x="-222.15" y="25.8546" font-family="Times,serif" font-size="14.00">show</text>
<text text-anchor="start" x="-222.15" y="40.8546" font-family="Times,serif" font-size="14.00">update</text>
<polyline fill="none" stroke="black" points="-230.15,48.6546 -100.15,48.6546 "/>
<polyline fill="none" stroke="black" points="-230.15,72.6546 -100.15,72.6546 "/>
<text text-anchor="start" x="-222.15" y="87.8546" font-family="Times,serif" font-size="14.00">_layout</text>
<text text-anchor="start" x="-222.15" y="102.855" font-family="Times,serif" font-size="14.00">admin_instructor</text>
<text text-anchor="start" x="-222.15" y="117.855" font-family="Times,serif" font-size="14.00">correct_instructor</text>
<text text-anchor="start" x="-222.15" y="132.855" font-family="Times,serif" font-size="14.00">instructor_params</text>
<text text-anchor="start" x="-222.15" y="147.855" font-family="Times,serif" font-size="14.00">logged_in_instructor</text>
</g>
<!-- SessionsController -->
<g id="node3" class="node"><title>SessionsController</title>
<path fill="none" stroke="black" d="M74.099,346.086C74.099,346.086 169.099,346.086 169.099,346.086 175.099,346.086 181.099,340.086 181.099,334.086 181.099,334.086 181.099,235.086 181.099,235.086 181.099,229.086 175.099,223.086 169.099,223.086 169.099,223.086 74.099,223.086 74.099,223.086 68.099,223.086 62.099,229.086 62.099,235.086 62.099,235.086 62.099,334.086 62.099,334.086 62.099,340.086 68.099,346.086 74.099,346.086"/>
<text text-anchor="middle" x="121.599" y="238.286" font-family="Times,serif" font-size="14.00">SessionsController</text>
<polyline fill="none" stroke="black" points="62.099,246.086 181.099,246.086 "/>
<text text-anchor="start" x="70.099" y="261.286" font-family="Times,serif" font-size="14.00">create</text>
<text text-anchor="start" x="70.099" y="276.286" font-family="Times,serif" font-size="14.00">destroy</text>
<text text-anchor="start" x="70.099" y="291.286" font-family="Times,serif" font-size="14.00">new</text>
<polyline fill="none" stroke="black" points="62.099,299.086 181.099,299.086 "/>
<polyline fill="none" stroke="black" points="62.099,323.086 181.099,323.086 "/>
<text text-anchor="start" x="70.099" y="338.286" font-family="Times,serif" font-size="14.00">_layout</text>
</g>
<!-- QuizzesController -->
<g id="node4" class="node"><title>QuizzesController</title>
<path fill="none" stroke="black" d="M-207.668,413.043C-207.668,413.043 -102.668,413.043 -102.668,413.043 -96.6682,413.043 -90.6682,407.043 -90.6682,401.043 -90.6682,401.043 -90.6682,182.043 -90.6682,182.043 -90.6682,176.043 -96.6682,170.043 -102.668,170.043 -102.668,170.043 -207.668,170.043 -207.668,170.043 -213.668,170.043 -219.668,176.043 -219.668,182.043 -219.668,182.043 -219.668,401.043 -219.668,401.043 -219.668,407.043 -213.668,413.043 -207.668,413.043"/>
<text text-anchor="middle" x="-155.168" y="185.243" font-family="Times,serif" font-size="14.00">QuizzesController</text>
<polyline fill="none" stroke="black" points="-219.668,193.043 -90.6682,193.043 "/>
<text text-anchor="start" x="-211.668" y="208.243" font-family="Times,serif" font-size="14.00">create</text>
<text text-anchor="start" x="-211.668" y="223.243" font-family="Times,serif" font-size="14.00">edit</text>
<text text-anchor="start" x="-211.668" y="238.243" font-family="Times,serif" font-size="14.00">index</text>
<text text-anchor="start" x="-211.668" y="253.243" font-family="Times,serif" font-size="14.00">new</text>
<text text-anchor="start" x="-211.668" y="268.243" font-family="Times,serif" font-size="14.00">show</text>
<text text-anchor="start" x="-211.668" y="283.243" font-family="Times,serif" font-size="14.00">update</text>
<polyline fill="none" stroke="black" points="-219.668,291.043 -90.6682,291.043 "/>
<polyline fill="none" stroke="black" points="-219.668,315.043 -90.6682,315.043 "/>
<text text-anchor="start" x="-211.668" y="330.243" font-family="Times,serif" font-size="14.00">_layout</text>
<text text-anchor="start" x="-211.668" y="345.243" font-family="Times,serif" font-size="14.00">admin_instructor</text>
<text text-anchor="start" x="-211.668" y="360.243" font-family="Times,serif" font-size="14.00">correct_instructor</text>
<text text-anchor="start" x="-211.668" y="375.243" font-family="Times,serif" font-size="14.00">instructor_params</text>
<text text-anchor="start" x="-211.668" y="390.243" font-family="Times,serif" font-size="14.00">logged_in_instructor</text>
<text text-anchor="start" x="-211.668" y="405.243" font-family="Times,serif" font-size="14.00">quiz_params</text>
</g>
<!-- TopicsController -->
<g id="node5" class="node"><title>TopicsController</title>
<path fill="none" stroke="black" d="M-210.131,-100.006C-210.131,-100.006 -105.131,-100.006 -105.131,-100.006 -99.1312,-100.006 -93.1312,-106.006 -93.1312,-112.006 -93.1312,-112.006 -93.1312,-346.006 -93.1312,-346.006 -93.1312,-352.006 -99.1312,-358.006 -105.131,-358.006 -105.131,-358.006 -210.131,-358.006 -210.131,-358.006 -216.131,-358.006 -222.131,-352.006 -222.131,-346.006 -222.131,-346.006 -222.131,-112.006 -222.131,-112.006 -222.131,-106.006 -216.131,-100.006 -210.131,-100.006"/>
<text text-anchor="middle" x="-157.631" y="-342.806" font-family="Times,serif" font-size="14.00">TopicsController</text>
<polyline fill="none" stroke="black" points="-222.131,-335.006 -93.1312,-335.006 "/>
<text text-anchor="start" x="-214.131" y="-319.806" font-family="Times,serif" font-size="14.00">create</text>
<text text-anchor="start" x="-214.131" y="-304.806" font-family="Times,serif" font-size="14.00">destroy</text>
<text text-anchor="start" x="-214.131" y="-289.806" font-family="Times,serif" font-size="14.00">edit</text>
<text text-anchor="start" x="-214.131" y="-274.806" font-family="Times,serif" font-size="14.00">index</text>
<text text-anchor="start" x="-214.131" y="-259.806" font-family="Times,serif" font-size="14.00">new</text>
<text text-anchor="start" x="-214.131" y="-244.806" font-family="Times,serif" font-size="14.00">show</text>
<text text-anchor="start" x="-214.131" y="-229.806" font-family="Times,serif" font-size="14.00">update</text>
<polyline fill="none" stroke="black" points="-222.131,-222.006 -93.1312,-222.006 "/>
<polyline fill="none" stroke="black" points="-222.131,-198.006 -93.1312,-198.006 "/>
<text text-anchor="start" x="-214.131" y="-182.806" font-family="Times,serif" font-size="14.00">_layout</text>
<text text-anchor="start" x="-214.131" y="-167.806" font-family="Times,serif" font-size="14.00">admin_instructor</text>
<text text-anchor="start" x="-214.131" y="-152.806" font-family="Times,serif" font-size="14.00">correct_instructor</text>
<text text-anchor="start" x="-214.131" y="-137.806" font-family="Times,serif" font-size="14.00">instructor_params</text>
<text text-anchor="start" x="-214.131" y="-122.806" font-family="Times,serif" font-size="14.00">logged_in_instructor</text>
<text text-anchor="start" x="-214.131" y="-107.806" font-family="Times,serif" font-size="14.00">topic_params</text>
</g>
<!-- StaticPagesController -->
<g id="node6" class="node"><title>StaticPagesController</title>
<path fill="none" stroke="black" d="M64.5269,-163.455C64.5269,-163.455 174.527,-163.455 174.527,-163.455 180.527,-163.455 186.527,-169.455 186.527,-175.455 186.527,-175.455 186.527,-289.455 186.527,-289.455 186.527,-295.455 180.527,-301.455 174.527,-301.455 174.527,-301.455 64.5269,-301.455 64.5269,-301.455 58.5269,-301.455 52.5269,-295.455 52.5269,-289.455 52.5269,-289.455 52.5269,-175.455 52.5269,-175.455 52.5269,-169.455 58.5269,-163.455 64.5269,-163.455"/>
<text text-anchor="middle" x="119.527" y="-286.255" font-family="Times,serif" font-size="14.00">StaticPagesController</text>
<polyline fill="none" stroke="black" points="52.5269,-278.455 186.527,-278.455 "/>
<text text-anchor="start" x="60.5269" y="-263.255" font-family="Times,serif" font-size="14.00">about</text>
<text text-anchor="start" x="60.5269" y="-248.255" font-family="Times,serif" font-size="14.00">contact</text>
<text text-anchor="start" x="60.5269" y="-233.255" font-family="Times,serif" font-size="14.00">help</text>
<text text-anchor="start" x="60.5269" y="-218.255" font-family="Times,serif" font-size="14.00">home</text>
<polyline fill="none" stroke="black" points="52.5269,-210.455 186.527,-210.455 "/>
<polyline fill="none" stroke="black" points="52.5269,-186.455 186.527,-186.455 "/>
<text text-anchor="start" x="60.5269" y="-171.255" font-family="Times,serif" font-size="14.00">_layout</text>
</g>
<!-- ApplicationController -->
<g id="node7" class="node"><title>ApplicationController</title>
<path fill="none" stroke="black" d="M55.2947,70.9879C55.2947,70.9879 167.295,70.9879 167.295,70.9879 173.295,70.9879 179.295,64.9879 179.295,58.9879 179.295,58.9879 179.295,-10.0121 179.295,-10.0121 179.295,-16.0121 173.295,-22.0121 167.295,-22.0121 167.295,-22.0121 55.2947,-22.0121 55.2947,-22.0121 49.2947,-22.0121 43.2947,-16.0121 43.2947,-10.0121 43.2947,-10.0121 43.2947,58.9879 43.2947,58.9879 43.2947,64.9879 49.2947,70.9879 55.2947,70.9879"/>
<text text-anchor="middle" x="111.295" y="-6.81206" font-family="Times,serif" font-size="14.00">ApplicationController</text>
<polyline fill="none" stroke="black" points="43.2947,0.987939 179.295,0.987939 "/>
<text text-anchor="start" x="51.2947" y="16.1879" font-family="Times,serif" font-size="14.00">hello</text>
<polyline fill="none" stroke="black" points="43.2947,23.9879 179.295,23.9879 "/>
<polyline fill="none" stroke="black" points="43.2947,47.9879 179.295,47.9879 "/>
<text text-anchor="start" x="51.2947" y="63.1879" font-family="Times,serif" font-size="14.00">_layout</text>
</g>
<!-- ApplicationController&#45;&gt;InstructorsController -->
<g id="edge1" class="edge"><title>ApplicationController&#45;&gt;InstructorsController</title>
<path fill="none" stroke="black" d="M42.9601,26.8774C-0.689658,28.4038 -56.9579,30.3713 -99.9783,31.8757"/>
</g>
<!-- ApplicationController&#45;&gt;SessionsController -->
<g id="edge2" class="edge"><title>ApplicationController&#45;&gt;SessionsController</title>
<path fill="none" stroke="black" d="M113.137,70.9883C114.816,113.363 117.308,176.261 119.153,222.838"/>
</g>
<!-- ApplicationController&#45;&gt;QuizzesController -->
<g id="edge3" class="edge"><title>ApplicationController&#45;&gt;QuizzesController</title>
<path fill="none" stroke="black" d="M64.8804,71.0054C21.9373,114.044 -42.3196,178.444 -90.3248,226.556"/>
</g>
<!-- ApplicationController&#45;&gt;TopicsController -->
<g id="edge4" class="edge"><title>ApplicationController&#45;&gt;TopicsController</title>
<path fill="none" stroke="black" d="M61.6562,-22.3022C18.0991,-63.3599 -45.5293,-123.337 -93.041,-168.123"/>
</g>
<!-- ApplicationController&#45;&gt;StaticPagesController -->
<g id="edge5" class="edge"><title>ApplicationController&#45;&gt;StaticPagesController</title>
<path fill="none" stroke="black" d="M112.786,-22.0424C114.046,-61.3782 115.87,-118.304 117.303,-163.028"/>
</g>
</g>
</svg>
