<?xml version="1.0" encoding="UTF-8" standalone="no"?>
<!DOCTYPE svg PUBLIC "-//W3C//DTD SVG 1.1//EN"
 "http://www.w3.org/Graphics/SVG/1.1/DTD/svg11.dtd">
<!-- Generated by graphviz version 2.38.0 (20140413.2041)
 -->
<!-- Title: models_diagram Pages: 1 -->
<svg width="456pt" height="230pt"
 viewBox="0.00 0.00 455.85 230.00" xmlns="http://www.w3.org/2000/svg" xmlns:xlink="http://www.w3.org/1999/xlink">
<g id="graph0" class="graph" transform="scale(1 1) rotate(0) translate(4 226)">
<title>models_diagram</title>
<polygon fill="none" stroke="none" points="-4,4 -4,-226 451.846,-226 451.846,4 -4,4"/>
<!-- _diagram_info -->
<g id="node1" class="node"><title>_diagram_info</title>
<text text-anchor="start" x="8" y="-207.6" font-family="Times,serif" font-size="13.00">Models diagram</text>
<text text-anchor="start" x="8" y="-193.6" font-family="Times,serif" font-size="13.00">Date: Apr 22 2018 &#45; 02:43</text>
<text text-anchor="start" x="8" y="-179.6" font-family="Times,serif" font-size="13.00">Migration version: 20180420083810</text>
<text text-anchor="start" x="8" y="-165.6" font-family="Times,serif" font-size="13.00">Generated by RailRoady 1.5.3</text>
<text text-anchor="start" x="8" y="-151.6" font-family="Times,serif" font-size="13.00">http://railroady.prestonlee.com</text>
</g>
<!-- Quiz -->
<g id="node2" class="node"><title>Quiz</title>
<ellipse fill="none" stroke="black" cx="279" cy="-18" rx="27.8951" ry="18"/>
<text text-anchor="middle" x="279" y="-14.3" font-family="Times,serif" font-size="14.00">Quiz</text>
</g>
<!-- ApplicationRecord -->
<g id="node3" class="node"><title>ApplicationRecord</title>
<ellipse fill="none" stroke="black" cx="309" cy="-183" rx="77.1866" ry="18"/>
<text text-anchor="middle" x="309" y="-179.3" font-family="Times,serif" font-size="14.00">ApplicationRecord</text>
</g>
<!-- ApplicationRecord&#45;&gt;Quiz -->
<g id="edge1" class="edge"><title>ApplicationRecord&#45;&gt;Quiz</title>
<path fill="none" stroke="black" d="M296.675,-165.08C287.011,-150.703 274.337,-129.095 269,-108 262.784,-83.4298 268.538,-54.0666 273.539,-35.9751"/>
</g>
<!-- Topic -->
<g id="node4" class="node"><title>Topic</title>
<ellipse fill="none" stroke="black" cx="309" cy="-90" rx="31.3957" ry="18"/>
<text text-anchor="middle" x="309" y="-86.3" font-family="Times,serif" font-size="14.00">Topic</text>
</g>
<!-- ApplicationRecord&#45;&gt;Topic -->
<g id="edge3" class="edge"><title>ApplicationRecord&#45;&gt;Topic</title>
<path fill="none" stroke="black" d="M309,-164.884C309,-148.614 309,-124.284 309,-108.04"/>
</g>
<!-- Instructor -->
<g id="node5" class="node"><title>Instructor</title>
<ellipse fill="none" stroke="black" cx="403" cy="-90" rx="44.6926" ry="18"/>
<text text-anchor="middle" x="403" y="-86.3" font-family="Times,serif" font-size="14.00">Instructor</text>
</g>
<!-- ApplicationRecord&#45;&gt;Instructor -->
<g id="edge4" class="edge"><title>ApplicationRecord&#45;&gt;Instructor</title>
<path fill="none" stroke="black" d="M326.241,-165.309C343.414,-148.685 369.59,-123.343 386.499,-106.975"/>
</g>
<!-- Topic&#45;&gt;Quiz -->
<g id="edge2" class="edge"><title>Topic&#45;&gt;Quiz</title>
<path fill="none" stroke="#ecf7aa" d="M298.693,-64.9496C295.894,-58.4184 292.852,-51.3217 290.016,-44.7031"/>
<ellipse fill="none" stroke="#ecf7aa" cx="300.315" cy="-68.7344" rx="4.00002" ry="4.00002"/>
<polygon fill="#ecf7aa" stroke="#ecf7aa" points="289.998,-44.6614 290.195,-33.6973 288.028,-40.0657 286.059,-35.4699 286.059,-35.4699 286.059,-35.4699 288.028,-40.0657 281.922,-37.2426 289.998,-44.6614 289.998,-44.6614"/>
</g>
</g>
</svg>
