<?xml version="1.0" encoding="UTF-8" standalone="no"?>
<!DOCTYPE svg PUBLIC "-//W3C//DTD SVG 1.1//EN"
 "http://www.w3.org/Graphics/SVG/1.1/DTD/svg11.dtd">
<!-- Generated by graphviz version 2.38.0 (20140413.2041)
 -->
<!-- Title: models_diagram Pages: 1 -->
<svg width="561pt" height="447pt"
 viewBox="0.00 0.00 561.00 447.00" xmlns="http://www.w3.org/2000/svg" xmlns:xlink="http://www.w3.org/1999/xlink">
<g id="graph0" class="graph" transform="scale(1 1) rotate(0) translate(4 443)">
<title>models_diagram</title>
<polygon fill="none" stroke="none" points="-4,4 -4,-443 557,-443 557,4 -4,4"/>
<!-- _diagram_info -->
<g id="node1" class="node"><title>_diagram_info</title>
<text text-anchor="start" x="8" y="-424.6" font-family="Times,serif" font-size="13.00">Models diagram</text>
<text text-anchor="start" x="8" y="-410.6" font-family="Times,serif" font-size="13.00">Date: Apr 22 2018 &#45; 02:43</text>
<text text-anchor="start" x="8" y="-396.6" font-family="Times,serif" font-size="13.00">Migration version: 20180420083810</text>
<text text-anchor="start" x="8" y="-382.6" font-family="Times,serif" font-size="13.00">Generated by RailRoady 1.5.3</text>
<text text-anchor="start" x="8" y="-368.6" font-family="Times,serif" font-size="13.00">http://railroady.prestonlee.com</text>
</g>
<!-- Quiz -->
<g id="node2" class="node"><title>Quiz</title>
<path fill="none" stroke="black" d="M208.5,-0.5C208.5,-0.5 315.5,-0.5 315.5,-0.5 321.5,-0.5 327.5,-6.5 327.5,-12.5 327.5,-12.5 327.5,-124.5 327.5,-124.5 327.5,-130.5 321.5,-136.5 315.5,-136.5 315.5,-136.5 208.5,-136.5 208.5,-136.5 202.5,-136.5 196.5,-130.5 196.5,-124.5 196.5,-124.5 196.5,-12.5 196.5,-12.5 196.5,-6.5 202.5,-0.5 208.5,-0.5"/>
<text text-anchor="middle" x="262" y="-121.3" font-family="Times,serif" font-size="14.00">Quiz</text>
<polyline fill="none" stroke="black" points="196.5,-113.5 327.5,-113.5 "/>
<text text-anchor="start" x="204.5" y="-98.3" font-family="Times,serif" font-size="14.00">id :INTEGER</text>
<text text-anchor="start" x="204.5" y="-83.3" font-family="Times,serif" font-size="14.00">question :text</text>
<text text-anchor="start" x="204.5" y="-68.3" font-family="Times,serif" font-size="14.00">answer :text</text>
<text text-anchor="start" x="204.5" y="-53.3" font-family="Times,serif" font-size="14.00">remark :text</text>
<text text-anchor="start" x="204.5" y="-38.3" font-family="Times,serif" font-size="14.00">topic_id :integer</text>
<text text-anchor="start" x="204.5" y="-23.3" font-family="Times,serif" font-size="14.00">created_at :datetime</text>
<text text-anchor="start" x="204.5" y="-8.3" font-family="Times,serif" font-size="14.00">updated_at :datetime</text>
</g>
<!-- ApplicationRecord -->
<g id="node3" class="node"><title>ApplicationRecord</title>
<ellipse fill="none" stroke="black" cx="309" cy="-400" rx="77.1866" ry="18"/>
<text text-anchor="middle" x="309" y="-396.3" font-family="Times,serif" font-size="14.00">ApplicationRecord</text>
</g>
<!-- ApplicationRecord&#45;&gt;Quiz -->
<g id="edge1" class="edge"><title>ApplicationRecord&#45;&gt;Quiz</title>
<path fill="none" stroke="black" d="M284.33,-382.856C266.622,-369.678 244.162,-349.301 234,-325 208.78,-264.688 221.595,-189.731 237.172,-136.643"/>
</g>
<!-- Topic -->
<g id="node4" class="node"><title>Topic</title>
<path fill="none" stroke="black" d="M255.5,-203.5C255.5,-203.5 362.5,-203.5 362.5,-203.5 368.5,-203.5 374.5,-209.5 374.5,-215.5 374.5,-215.5 374.5,-282.5 374.5,-282.5 374.5,-288.5 368.5,-294.5 362.5,-294.5 362.5,-294.5 255.5,-294.5 255.5,-294.5 249.5,-294.5 243.5,-288.5 243.5,-282.5 243.5,-282.5 243.5,-215.5 243.5,-215.5 243.5,-209.5 249.5,-203.5 255.5,-203.5"/>
<text text-anchor="middle" x="309" y="-279.3" font-family="Times,serif" font-size="14.00">Topic</text>
<polyline fill="none" stroke="black" points="243.5,-271.5 374.5,-271.5 "/>
<text text-anchor="start" x="251.5" y="-256.3" font-family="Times,serif" font-size="14.00">id :INTEGER</text>
<text text-anchor="start" x="251.5" y="-241.3" font-family="Times,serif" font-size="14.00">name :text</text>
<text text-anchor="start" x="251.5" y="-226.3" font-family="Times,serif" font-size="14.00">created_at :datetime</text>
<text text-anchor="start" x="251.5" y="-211.3" font-family="Times,serif" font-size="14.00">updated_at :datetime</text>
</g>
<!-- ApplicationRecord&#45;&gt;Topic -->
<g id="edge3" class="edge"><title>ApplicationRecord&#45;&gt;Topic</title>
<path fill="none" stroke="black" d="M309,-381.908C309,-360.81 309,-324.128 309,-294.793"/>
</g>
<!-- Instructor -->
<g id="node5" class="node"><title>Instructor</title>
<path fill="none" stroke="black" d="M405,-173.5C405,-173.5 541,-173.5 541,-173.5 547,-173.5 553,-179.5 553,-185.5 553,-185.5 553,-312.5 553,-312.5 553,-318.5 547,-324.5 541,-324.5 541,-324.5 405,-324.5 405,-324.5 399,-324.5 393,-318.5 393,-312.5 393,-312.5 393,-185.5 393,-185.5 393,-179.5 399,-173.5 405,-173.5"/>
<text text-anchor="middle" x="473" y="-309.3" font-family="Times,serif" font-size="14.00">Instructor</text>
<polyline fill="none" stroke="black" points="393,-301.5 553,-301.5 "/>
<text text-anchor="start" x="401" y="-286.3" font-family="Times,serif" font-size="14.00">id :INTEGER</text>
<text text-anchor="start" x="401" y="-271.3" font-family="Times,serif" font-size="14.00">name :varchar</text>
<text text-anchor="start" x="401" y="-256.3" font-family="Times,serif" font-size="14.00">email :varchar</text>
<text text-anchor="start" x="401" y="-241.3" font-family="Times,serif" font-size="14.00">created_at :datetime</text>
<text text-anchor="start" x="401" y="-226.3" font-family="Times,serif" font-size="14.00">updated_at :datetime</text>
<text text-anchor="start" x="401" y="-211.3" font-family="Times,serif" font-size="14.00">password_digest :varchar</text>
<text text-anchor="start" x="401" y="-196.3" font-family="Times,serif" font-size="14.00">remember_digest :varchar</text>
<text text-anchor="start" x="401" y="-181.3" font-family="Times,serif" font-size="14.00">admin :boolean</text>
</g>
<!-- ApplicationRecord&#45;&gt;Instructor -->
<g id="edge4" class="edge"><title>ApplicationRecord&#45;&gt;Instructor</title>
<path fill="none" stroke="black" d="M327.177,-382.485C343.357,-367.786 368.211,-345.205 392.843,-322.826"/>
</g>
<!-- Topic&#45;&gt;Quiz -->
<g id="edge2" class="edge"><title>Topic&#45;&gt;Quiz</title>
<path fill="none" stroke="#41f42f" d="M295.095,-195.192C291.103,-180.028 286.664,-163.17 282.367,-146.852"/>
<ellipse fill="none" stroke="#41f42f" cx="296.243" cy="-199.549" rx="4.00001" ry="4.00001"/>
<polygon fill="#41f42f" stroke="#41f42f" points="282.262,-146.452 284.067,-135.636 280.989,-141.617 279.716,-136.781 279.716,-136.781 279.716,-136.781 280.989,-141.617 275.364,-137.927 282.262,-146.452 282.262,-146.452"/>
</g>
</g>
</svg>
